# File created by Blade
# Date/Time:  Wed Jan 21 14:55:15 2015
# Frame Rate: 120.000 fps
#------------------------------------------------------
:FULLY-SPECIFIED
:DEGREES
944
root 19.038516 35.860903 -20.133071 -179.657026 2.311148 -178.222239
Spine -8.407539 3.380780 2.450417
Head 11.706985 -2.081161 1.859840
LeftShoulder -12.312105 -30.877292 15.365509
LeftArm 8.773837 4.272251 -14.120117
LeftForeArm 1.760628 -0.000000 -1.953130
LeftHand -6.240273 -0.000000 -0.489505
LeftHandThumb1 -26.253704 0.000000 33.147579
RightShoulder -11.147149 -6.114524 -6.475924
RightArm 13.197248 37.236331 16.214566
RightForeArm -31.716511 -0.000000 7.221823
RightHand -11.709567 0.000000 -1.552618
RightHandThumb1 -24.326973 -0.000000 -32.862282
LeftUpLeg 0.956752 12.461375 0.672170
LeftLeg -1.753891 -0.000000 0.000000
LeftFoot -18.939523 29.947087 -11.759304
LeftToeBase 22.624453 -0.000000 -0.000000
RightUpLeg -7.547493 -13.442988 -4.858507
RightLeg 12.822974 -0.000000 -0.000000
RightFoot -27.250189 -22.314720 20.816131
RightToeBase 9.319043 -0.000000 -0.000000
945
root 19.035462 35.868909 -20.170781 -179.870413 1.544630 -178.121558
Spine -8.393355 2.930083 2.413460
Head 11.947459 -2.287767 1.988763
LeftShoulder -12.253688 -30.886819 15.246976
LeftArm 9.273231 4.461203 -13.955101
LeftForeArm 1.739188 -0.000000 -1.965524
LeftHand -6.406639 -0.000000 -0.380289
LeftHandThumb1 -26.253704 0.000000 33.147579
RightShoulder -11.055255 -5.979582 -6.408312
RightArm 12.826129 37.210917 15.758750
RightForeArm -31.851340 -0.000000 7.339039
RightHand -11.659649 0.000000 -1.473415
RightHandThumb1 -24.326973 -0.000000 -32.862282
LeftUpLeg 1.037970 12.181966 0.814500
LeftLeg -1.574317 -0.000000 0.000000
LeftFoot -18.957644 29.567504 -11.713436
LeftToeBase 22.669959 -0.000000 -0.000000
RightUpLeg -6.784991 -13.752068 -4.790416
RightLeg 12.031572 -0.000000 -0.000000
RightFoot -26.973012 -22.225210 21.056901
RightToeBase 9.534423 -0.000000 -0.000000
946
root 19.032222 35.872876 -20.207116 -180.060721 0.760148 -178.086634
Spine -8.426148 2.510440 2.268681
Head 12.223716 -2.527129 2.086927
LeftShoulder -12.091120 -30.921914 15.156433
LeftArm 9.669205 4.617245 -13.800438
LeftForeArm 1.825796 -0.000000 -1.892339
LeftHand -6.564683 -0.000000 -0.451623
LeftHandThumb1 -26.253704 0.000000 33.147579
RightShoulder -11.034715 -5.959393 -6.331430
RightArm 12.492016 37.225536 15.399442
RightForeArm -31.960090 -0.000000 7.517554
RightHand -11.707359 -0.000000 -1.549390
RightHandThumb1 -24.326973 -0.000000 -32.862282
LeftUpLeg 1.082449 11.825970 0.877888
LeftLeg -1.380826 -0.000000 0.000000
LeftFoot -18.960904 29.207460 -11.638209
LeftToeBase 22.674499 -0.000000 -0.000000
RightUpLeg -6.055926 -13.993031 -4.781834
RightLeg 11.293374 -0.000000 -0.000000
RightFoot -26.827028 -22.250198 21.290403
RightToeBase 9.491028 -0.000000 -0.000000
947
root 19.039770 35.874466 -20.243707 -180.232024 0.004883 -178.036614
Spine -8.473660 2.116260 2.100313
Head 12.477235 -2.700058 2.281607
LeftShoulder -11.959913 -30.886046 15.114384
LeftArm 10.135275 4.720103 -13.674990
LeftForeArm 1.941924 0.000000 -1.846572
LeftHand -6.662474 -0.000000 -0.396705
LeftHandThumb1 -26.253704 0.000000 33.147579
RightShoulder -11.066651 -5.945856 -6.244316
RightArm 12.269463 37.251380 15.131917
RightForeArm -32.044566 -0.000000 7.626786
RightHand -11.657390 -0.000000 -1.644046
RightHandThumb1 -24.326973 -0.000000 -32.862282
LeftUpLeg 1.118560 11.357158 0.971715
LeftLeg -1.192611 -0.000000 0.000000
LeftFoot -19.002035 28.934361 -11.550890
LeftToeBase 22.750740 -0.000000 -0.000000
RightUpLeg -5.376731 -14.306657 -4.734241
RightLeg 10.634912 -0.000000 -0.000000
RightFoot -26.724631 -22.142395 21.418985
RightToeBase 9.617635 -0.000000 -0.000000
948
root 19.042425 35.870309 -20.275655 -180.414484 -0.788979 -178.079756
Spine -8.477412 1.661392 1.828612
Head 12.658588 -2.951248 2.450773
LeftShoulder -11.880591 -30.848434 15.119083
LeftArm 10.629309 4.958846 -13.517936
LeftForeArm 1.955740 -0.000000 -1.817389
LeftHand -6.687626 -0.000000 -0.499082
LeftHandThumb1 -26.253704 0.000000 33.147579
RightShoulder -11.095114 -5.912905 -6.196544
RightArm 12.068974 37.250276 14.963908
RightForeArm -32.346758 0.000000 7.789605
RightHand -11.880798 -0.000000 -1.768714
RightHandThumb1 -24.326973 -0.000000 -32.862282
LeftUpLeg 1.095740 10.867148 0.959081
LeftLeg -0.896692 -0.000000 0.000000
LeftFoot -19.062992 28.636813 -11.462360
LeftToeBase 22.852497 -0.000000 -0.000000
RightUpLeg -4.718677 -14.629252 -4.797031
RightLeg 10.082494 -0.000000 -0.000000
RightFoot -26.630285 -22.063215 21.372910
RightToeBase 9.812590 -0.000000 -0.000000
949
root 19.048628 35.863999 -20.313182 -180.606788 -1.560653 -178.149376
Spine -8.474783 1.296431 1.499255
Head 12.842339 -3.286994 2.623175
LeftShoulder -11.735918 -30.811640 15.130233
LeftArm 11.116590 5.118037 -13.407178
LeftForeArm 1.955637 -0.000000 -1.719941
LeftHand -6.858394 0.000000 -0.489952
LeftHandThumb1 -26.253704 0.000000 33.147579
RightShoulder -11.218069 -5.945555 -6.115037
RightArm 11.919303 37.292883 14.799582
RightForeArm -32.499921 -0.000000 7.879360
RightHand -11.940865 0.000000 -1.810974
RightHandThumb1 -24.326973 -0.000000 -32.862282
LeftUpLeg 1.123931 10.261843 0.919097
LeftLeg -0.656852 -0.000000 0.000000
LeftFoot -19.144115 28.492710 -11.442243
LeftToeBase 22.863370 -0.000000 -0.000000
RightUpLeg -4.057903 -14.964636 -4.890356
RightLeg 9.586376 -0.000000 -0.000000
RightFoot -26.530607 -22.048078 21.313137
RightToeBase 9.838945 -0.000000 -0.000000
950
root 19.055568 35.852517 -20.346543 -180.802906 -2.276984 -178.259576
Spine -8.446716 0.972652 1.108099
Head 13.011752 -3.442517 2.864395
LeftShoulder -11.574351 -30.823981 15.188488
LeftArm 11.535945 5.357033 -13.275993
LeftForeArm 2.108435 -0.000000 -1.596448
LeftHand -6.962137 -0.000000 -0.474678
LeftHandThumb1 -26.253704 0.000000 33.147579
RightShoulder -11.290062 -5.935210 -6.032985
RightArm 11.691519 37.382630 14.612790
RightForeArm -32.685746 0.000000 7.947622
RightHand -11.907092 -0.000000 -1.807935
RightHandThumb1 -24.326973 -0.000000 -32.862282
LeftUpLeg 1.152350 9.683945 0.844433
LeftLeg -0.404059 -0.000000 0.000000
LeftFoot -19.256963 28.384598 -11.442329
LeftToeBase 22.945767 -0.000000 -0.000000
RightUpLeg -3.450701 -15.195054 -5.022798
RightLeg 9.193661 -0.000000 -0.000000
RightFoot -26.422010 -22.171876 21.282472
RightToeBase 9.974128 -0.000000 -0.000000
951
root 19.065515 35.839246 -20.377358 -180.936360 -2.909144 -178.403130
Spine -8.477483 0.756592 0.669826
Head 13.186363 -3.733021 3.080986
LeftShoulder -11.427087 -30.732986 15.210150
LeftArm 12.093675 5.549841 -13.102192
LeftForeArm 2.086741 -0.000000 -1.572471
LeftHand -6.875486 0.000000 -0.606435
LeftHandThumb1 -26.253704 0.000000 33.147579
RightShoulder -11.475462 -5.942111 -5.905620
RightArm 11.632132 37.518470 14.466260
RightForeArm -32.822590 -0.000000 7.949526
RightHand -11.792571 -0.000000 -1.666004
RightHandThumb1 -24.326973 -0.000000 -32.862282
LeftUpLeg 1.139734 9.155228 0.734603
LeftLeg -0.169655 -0.000000 0.000000
LeftFoot -19.373799 28.306695 -11.488649
LeftToeBase 23.024652 -0.000000 -0.000000
RightUpLeg -2.971532 -15.324432 -5.161024
RightLeg 8.907012 -0.000000 -0.000000
RightFoot -26.390126 -22.348630 21.213523
RightToeBase 10.284198 -0.000000 -0.000000
952
root 19.077491 35.824697 -20.415460 -181.101376 -3.513223 -178.569960
Spine -8.482377 0.543756 0.193608
Head 13.345373 -3.903391 3.321904
LeftShoulder -11.292166 -30.681539 15.273602
LeftArm 12.585020 5.810128 -12.912440
LeftForeArm 2.126946 0.000000 -1.436737
LeftHand -6.998833 -0.000000 -0.624826
LeftHandThumb1 -26.253704 0.000000 33.147579
RightShoulder -11.647542 -5.993195 -5.760071
RightArm 11.586043 37.480888 14.291853
RightForeArm -32.743992 -0.000000 7.869590
RightHand -11.839423 -0.000000 -1.805000
RightHandThumb1 -24.326973 -0.000000 -32.862282
LeftUpLeg 1.194910 8.721062 0.617266
LeftLeg 0.031846 -0.000000 -0.000000
LeftFoot -19.470840 28.152673 -11.524315
LeftToeBase 23.202849 -0.000000 -0.000000
RightUpLeg -2.442184 -15.452624 -5.328712
RightLeg 8.604892 -0.000000 -0.000000
RightFoot -26.310051 -22.504699 21.266814
RightToeBase 10.166646 -0.000000 -0.000000
953
root 19.092949 35.807984 -20.449521 -181.242959 -4.042876 -178.759416
Spine -8.484928 0.407607 -0.306947
Head 13.445089 -4.176806 3.533932
LeftShoulder -11.138018 -30.687285 15.322735
LeftArm 13.056528 6.043413 -12.697828
LeftForeArm 2.235688 0.000000 -1.343458
LeftHand -7.021695 -0.000000 -0.622104
LeftHandThumb1 -26.253704 0.000000 33.147579
RightShoulder -11.814307 -6.038971 -5.644583
RightArm 11.508090 37.582288 14.204792
RightForeArm -32.561094 -0.000000 7.858358
RightHand -11.754891 -0.000000 -1.909953
RightHandThumb1 -24.326973 -0.000000 -32.862282
LeftUpLeg 1.208888 8.479317 0.487069
LeftLeg 0.282033 -0.000000 -0.000000
LeftFoot -19.568735 27.883913 -11.508843
LeftToeBase 23.335854 -0.000000 -0.000000
RightUpLeg -1.986783 -15.517548 -5.501741
RightLeg 8.358939 -0.000000 -0.000000
RightFoot -26.223814 -22.671206 21.219805
RightToeBase 10.211375 -0.000000 -0.000000
